<?xml version="1.0" encoding="UTF-8" standalone="no"?>
<svg width="4.6cm" height="0.96cm" version="1.1" xmlns="http://www.w3.org/2000/svg" xmlns:xlink="http://www.w3.org/1999/xlink">
    <title>Logo Kanton Zug</title>
    <g id="Page-1" stroke="none" stroke-width="1" fill="none" fill-rule="evenodd">
        <path d="M41.296,0.821 L41.296,0 L-1,0 L-1,0.821 L41.296,0.821 Z M41.296,14.824 L41.296,14 L-1,14 L-1,14.824 L41.296,14.824 Z M41.296,18.822 L41.296,18 L-1,18 L-1,18.822 L41.296,18.822 Z M41.296,21.822 L41.296,21 L-1,21 L-1,21.822 L41.296,21.822 Z M41.296,24.824 L41.296,24 L-1,24 L-1,24.824 L41.296,24.824 Z M41.296,28.82 L41.296,28 L-1,28 L-1,28.82 L41.296,28.82 Z M149.582,30.38 L151.026,30.38 C151.253,31.556 152.035,31.978 153.221,31.978 C155.274,31.978 155.901,30.607 155.901,28.205 L155.901,27.535 C155.159,28.659 154.346,29.133 153.18,29.133 C150.819,29.133 149.242,27.092 149.242,24.03 C149.242,20.876 150.819,18.742 153.221,18.742 C154.49,18.742 155.324,19.268 155.922,20.453 C155.942,19.793 155.995,19.371 156.119,19.01 L157.551,19.01 C157.406,19.629 157.365,20.165 157.365,21.958 L157.365,28.494 C157.365,31.607 156.107,33.236 153.221,33.236 C151.489,33.236 149.809,32.473 149.582,30.38 Z M150.747,24.03 C150.747,26.36 151.727,27.865 153.242,27.865 C154.87,27.865 155.922,26.319 155.922,23.927 C155.922,21.598 154.87,20.01 153.324,20.01 C151.757,20.01 150.747,21.598 150.747,24.03 Z M139.481,27.556 C139.171,27.01 139.088,26.401 139.088,25.051 L139.088,19.01 L140.541,19.01 L140.541,25.051 C140.541,26.154 140.644,26.7 140.912,27.071 C141.242,27.556 141.851,27.824 142.562,27.824 C143.438,27.824 144.139,27.412 144.582,26.68 C144.871,26.175 144.974,25.597 144.974,24.618 L144.974,19.01 L146.429,19.01 L146.429,25.886 C146.429,28.04 146.429,28.154 146.665,28.886 L145.233,28.886 C145.089,28.453 145.047,28.092 145.027,27.577 C144.428,28.68 143.665,29.133 142.397,29.133 C141.109,29.133 140.005,28.556 139.481,27.556 Z M100.968,23.876 C100.968,20.886 102.761,18.742 105.277,18.742 C107.811,18.742 109.584,20.876 109.584,23.948 C109.584,26.989 107.811,29.133 105.277,29.133 C102.709,29.133 100.968,27.01 100.968,23.876 Z M102.461,23.886 C102.461,26.309 103.564,27.886 105.277,27.886 C106.956,27.886 108.09,26.309 108.09,23.927 C108.09,21.577 106.956,20 105.277,20 C103.607,20 102.461,21.577 102.461,23.886 Z M72.783,26.278 C72.783,24.907 73.576,23.886 75.071,23.329 C76.03,22.979 76.948,22.762 78.782,22.453 L78.782,22.03 C78.782,20.556 78.215,20 76.762,20 C75.494,20 74.782,20.494 74.576,21.598 L73.143,21.598 C73.35,19.742 74.638,18.742 76.824,18.742 C78.432,18.742 79.617,19.35 79.988,20.371 C80.174,20.876 80.225,21.35 80.225,22.577 L80.225,26.278 C80.225,27.886 80.256,28.195 80.483,28.886 L79.093,28.886 C78.948,28.422 78.926,28.195 78.866,27.556 C78.287,28.607 77.329,29.133 75.968,29.133 C74.03,29.133 72.783,28.02 72.783,26.278 Z M74.288,26.175 C74.288,27.195 75.05,27.906 76.205,27.906 C77.155,27.906 77.988,27.453 78.412,26.68 C78.66,26.205 78.782,25.535 78.782,24.515 L78.782,23.536 C75.452,24.113 74.288,24.824 74.288,26.175 Z M95.41,28.154 C95.224,27.824 95.163,27.473 95.163,26.762 C95.163,26.577 95.163,26.236 95.183,25.927 L95.214,25.154 L95.328,20.206 L93.855,20.206 L93.855,19.01 L95.38,19.01 L95.431,16.165 L96.853,16.165 L96.812,19.01 L99.142,19.01 L99.142,20.206 L96.791,20.206 L96.688,25.206 L96.688,26.175 C96.688,26.865 96.709,27.113 96.833,27.36 C96.956,27.659 97.307,27.824 97.781,27.824 C98.224,27.824 98.771,27.7 99.204,27.473 L99.204,28.752 C98.535,29.009 98.059,29.092 97.451,29.092 C96.482,29.092 95.74,28.752 95.41,28.154 Z M128.512,28.886 L128.512,27.68 L135.583,16.33 L128.954,16.33 L128.954,15 L137.481,15 L137.481,16.062 L130.347,27.535 L137.357,27.535 L137.357,28.886 L128.512,28.886 Z M118.513,28.886 L118.513,23.309 C118.513,21.804 118.472,21.453 118.244,20.979 C117.924,20.371 117.347,20.041 116.534,20.041 C115.636,20.041 114.822,20.494 114.369,21.268 C114.069,21.793 113.936,22.433 113.936,23.371 L113.936,28.886 L112.472,28.886 L112.472,22.371 C112.472,20.01 112.472,19.938 112.245,19.01 L113.636,19.01 C113.78,19.433 113.842,19.835 113.842,20.453 C114.513,19.309 115.512,18.742 116.822,18.742 C118.172,18.742 119.214,19.35 119.656,20.35 C119.924,20.989 119.977,21.268 119.977,23.226 L119.977,28.886 L118.513,28.886 Z M89.792,28.886 L89.792,23.309 C89.792,21.804 89.761,21.453 89.525,20.979 C89.215,20.371 88.627,20.041 87.814,20.041 C86.916,20.041 86.112,20.494 85.649,21.268 C85.36,21.793 85.216,22.433 85.216,23.371 L85.216,28.886 L83.752,28.886 L83.752,22.371 C83.752,20.01 83.752,19.938 83.524,19.01 L84.916,19.01 C85.072,19.433 85.133,19.835 85.133,20.453 C85.802,19.309 86.792,18.742 88.112,18.742 C89.463,18.742 90.503,19.35 90.936,20.35 C91.204,20.989 91.245,21.268 91.245,23.226 L91.245,28.886 L89.792,28.886 Z M69.515,28.886 L63.587,21.598 L69.205,15 L71.102,15 L65.432,21.556 L71.638,28.886 L69.515,28.886 Z M62,28.886 L62,15 L63.567,15 L63.567,28.886 L62,28.886 Z" id="Monochrome-Logo" fill="#1A1918"></path>
    </g>
</svg>
